<svg width="518" height="494" viewBox="0 0 518 494" fill="none" xmlns="http://www.w3.org/2000/svg">
<g clip-path="url(#clip0_44_442)">
<path d="M244.241 182.32V107.12C244.241 96.52 235.639 89.72 225.44 91.72L122.64 114.12C109.84 116.92 102.84 123.92 102.84 135.12L103.24 357.521C104.24 367.32 99.6401 373.72 90.84 375.521L59.0399 382.119C19.04 390.52 0.23999 410.92 0.23999 441.12C0.23999 471.719 23.8399 493.121 57.04 493.121C86.4399 493.121 130.44 471.521 130.44 413.32V230.32C130.44 219.72 132.44 217.52 141.84 215.52L233.241 195.52C240.04 194.12 244.241 188.92 244.241 182.32Z" fill="white"/>
</g>
<g clip-path="url(#clip1_44_442)">
<path d="M510.481 100.4V25.1999C510.481 14.5999 501.879 7.79992 491.68 9.79992L388.88 32.1999C376.08 34.9999 369.08 42 369.08 53.1999L369.48 275.601C370.48 285.4 365.88 291.8 357.08 293.6L325.28 300.199C285.28 308.6 266.48 329 266.48 359.2C266.48 389.799 290.08 411.201 323.28 411.201C352.68 411.201 396.68 389.6 396.68 331.4V148.4C396.68 137.8 398.68 135.6 408.08 133.6L499.481 113.6C506.28 112.2 510.481 107 510.481 100.4Z" fill="white"/>
</g>
<defs>
<clipPath id="clip0_44_442">
<rect width="251.4" height="411.001" fill="white" transform="translate(0.23999 82.12)"/>
</clipPath>
<clipPath id="clip1_44_442">
<rect width="251.4" height="411.001" fill="white" transform="translate(266.48 0.199951)"/>
</clipPath>
</defs>
</svg>
