<?xml version="1.0" encoding="UTF-8"?>
<svg width="3300px" height="2200px" viewBox="0 0 3300 2200" version="1.1" xmlns="http://www.w3.org/2000/svg" xmlns:xlink="http://www.w3.org/1999/xlink">
    <title>custom.square</title>
    <g id="Page-1" stroke="none" stroke-width="1" fill="none" fill-rule="evenodd">
        <g id="custom.square">
            <g id="Notes">
                <rect id="artboard" fill="#FFFFFF" fill-rule="nonzero" x="0" y="0" width="3300" height="2200"></rect>
                <line x1="263" y1="292" x2="3036" y2="292" id="Path" stroke="#000000" stroke-width="0.5"></line>
                <text id="Weight/Scale-Variations" fill="#000000" fill-rule="nonzero" font-family="Helvetica" font-size="13" font-weight="normal">
                    <tspan x="263" y="322">Weight/Scale Variations</tspan>
                </text>
                <text id="Ultralight" fill="#000000" fill-rule="nonzero" font-family="Helvetica" font-size="13" font-weight="normal">
                    <tspan x="533.711" y="322">Ultralight</tspan>
                </text>
                <text id="Thin" fill="#000000" fill-rule="nonzero" font-family="Helvetica" font-size="13" font-weight="normal">
                    <tspan x="843.422" y="322">Thin</tspan>
                </text>
                <text id="Light" fill="#000000" fill-rule="nonzero" font-family="Helvetica" font-size="13" font-weight="normal">
                    <tspan x="1138.63" y="322">Light</tspan>
                </text>
                <text id="Regular" fill="#000000" fill-rule="nonzero" font-family="Helvetica" font-size="13" font-weight="normal">
                    <tspan x="1426.84" y="322">Regular</tspan>
                </text>
                <text id="Medium" fill="#000000" fill-rule="nonzero" font-family="Helvetica" font-size="13" font-weight="normal">
                    <tspan x="1723.06" y="322">Medium</tspan>
                </text>
                <text id="Semibold" fill="#000000" fill-rule="nonzero" font-family="Helvetica" font-size="13" font-weight="normal">
                    <tspan x="2015.77" y="322">Semibold</tspan>
                </text>
                <text id="Bold" fill="#000000" fill-rule="nonzero" font-family="Helvetica" font-size="13" font-weight="normal">
                    <tspan x="2326.48" y="322">Bold</tspan>
                </text>
                <text id="Heavy" fill="#000000" fill-rule="nonzero" font-family="Helvetica" font-size="13" font-weight="normal">
                    <tspan x="2618.19" y="322">Heavy</tspan>
                </text>
                <text id="Black" fill="#000000" fill-rule="nonzero" font-family="Helvetica" font-size="13" font-weight="normal">
                    <tspan x="2917.4" y="322">Black</tspan>
                </text>
                <line x1="263" y1="1903" x2="3036" y2="1903" id="Path" stroke="#000000" stroke-width="0.5"></line>
                <g id="Group" transform="translate(264.3672, 1918.0684)" fill="#000000" fill-rule="nonzero">
                    <path d="M7.88086,15.76172 C12.23632,15.76172 15.77148,12.23632 15.77148,7.88086 C15.77148,3.5254 12.23632,0 7.88086,0 C3.53516,0 0,3.5254 0,7.88086 C0,12.23632 3.53516,15.76172 7.88086,15.76172 Z M7.88086,14.277344 C4.3457,14.277344 1.49414,11.416024 1.49414,7.880864 C1.49414,4.345704 4.3457,1.484384 7.88086,1.484384 C11.41602,1.484384 14.27734,4.345704 14.27734,7.880864 C14.27734,11.416024 11.41602,14.277344 7.88086,14.277344 Z M4.2871,7.880864 C4.2871,8.310552 4.589834,8.60352 5.039054,8.60352 L7.138654,8.60352 L7.138654,10.72266 C7.138654,11.162114 7.431622,11.464848 7.86131,11.464848 C8.310528,11.464848 8.603498,11.162114 8.603498,10.72266 L8.603498,8.60352 L10.722638,8.60352 C11.162092,8.60352 11.464826,8.310552 11.464826,7.880864 C11.464826,7.44141 11.162092,7.138676 10.722638,7.138676 L8.603498,7.138676 L8.603498,5.029296 C8.603498,4.580078 8.31053,4.277342 7.86131,4.277342 C7.431622,4.277342 7.138654,4.580076 7.138654,5.029296 L7.138654,7.138676 L5.039054,7.138676 C4.589836,7.138676 4.2871,7.44141 4.2871,7.880864 Z" id="Shape"></path>
                </g>
                <g id="Group" transform="translate(283.254, 1915.9883)" fill="#000000" fill-rule="nonzero">
                    <path d="M9.96094,19.92188 C15.45898,19.92188 19.92188,15.45898 19.92188,9.96094 C19.92188,4.4629 15.45898,0 9.96094,0 C4.4629,0 0,4.4629 0,9.96094 C0,15.45898 4.4629,19.92188 9.96094,19.92188 Z M9.96094,18.261724 C5.3711,18.261724 1.66016,14.550784 1.66016,9.960944 C1.66016,5.371104 5.3711,1.660164 9.96094,1.660164 C14.55078,1.660164 18.26172,5.371104 18.26172,9.960944 C18.26172,14.550784 14.55078,18.261724 9.96094,18.261724 Z M5.4297,9.960944 C5.4297,10.43946 5.761732,10.761726 6.259778,10.761726 L9.130878,10.761726 L9.130878,13.642586 C9.130878,14.130868 9.46291,14.472664 9.941424,14.472664 C10.4297,14.472664 10.771502,14.140632 10.771502,13.642586 L10.771502,10.761726 L13.652362,10.761726 C14.140644,10.761726 14.48244,10.43946 14.48244,9.960944 C14.48244,9.472662 14.140644,9.130866 13.652362,9.130866 L10.771502,9.130866 L10.771502,6.259766 C10.771502,5.76172 10.4297,5.419922 9.941424,5.419922 C9.462908,5.419922 9.130878,5.761718 9.130878,6.259766 L9.130878,9.130866 L6.259778,9.130866 C5.761732,9.130866 5.4297,9.472662 5.4297,9.960944 Z" id="Shape"></path>
                </g>
                <g id="Group" transform="translate(307.1799, 1913.2246)" fill="#000000" fill-rule="nonzero">
                    <path d="M12.71484,25.43944 C19.73632,25.43944 25.43944,19.74608 25.43944,12.7246 C25.43944,5.70312 19.73632,0 12.71484,0 C5.69336,0 2.84217094e-15,5.70312 2.84217094e-15,12.7246 C2.84217094e-15,19.74608 5.69336,25.43944 12.71484,25.43944 Z M12.71484,23.623034 C6.68944,23.623034 1.8164,18.749994 1.8164,12.724594 C1.8164,6.699194 6.68944,1.826154 12.71484,1.826154 C18.74024,1.826154 23.61328,6.699194 23.61328,12.724594 C23.61328,18.749994 18.74024,23.623034 12.71484,23.623034 Z M6.94336,12.724594 C6.94336,13.242172 7.314454,13.6035 7.861328,13.6035 L11.806648,13.6035 L11.806648,17.55858 C11.806648,18.09569 12.177742,18.476548 12.69532,18.476548 C13.23243,18.476548 13.603524,18.105454 13.603524,17.55858 L13.603524,13.6035 L17.558604,13.6035 C18.095714,13.6035 18.476572,13.242172 18.476572,12.724594 C18.476572,12.177718 18.105478,11.806626 17.558604,11.806626 L13.603524,11.806626 L13.603524,7.861306 C13.603524,7.31443 13.23243,6.933572 12.69532,6.933572 C12.177742,6.933572 11.806648,7.314432 11.806648,7.861306 L11.806648,11.806626 L7.861328,11.806626 C7.314452,11.806626 6.94336,12.17772 6.94336,12.724594 Z" id="Shape"></path>
                </g>
                <text id="Design-Variations" fill="#000000" fill-rule="nonzero" font-family="Helvetica" font-size="13" font-weight="normal">
                    <tspan x="263" y="1953">Design Variations</tspan>
                </text>
                <text id="Symbols-are-supported-in-up-to-nine-weights-and-three-scales." fill="#000000" fill-rule="nonzero" font-family="Helvetica" font-size="13" font-weight="normal">
                    <tspan x="263" y="1971">Symbols are supported in up to nine weights and three scales.</tspan>
                </text>
                <text id="For-optimal-layout-with-text-and-other-symbols,-vertically-align" fill="#000000" fill-rule="nonzero" font-family="Helvetica" font-size="13" font-weight="normal">
                    <tspan x="263" y="1989">For optimal layout with text and other symbols, vertically align</tspan>
                </text>
                <text id="symbols-with-the-adjacent-text." fill="#000000" fill-rule="nonzero" font-family="Helvetica" font-size="13" font-weight="normal">
                    <tspan x="263" y="2007">symbols with the adjacent text.</tspan>
                </text>
                <line x1="776" y1="1919" x2="776" y2="1933" id="Path" stroke="#00AEEF" stroke-width="0.5"></line>
                <g id="Group" transform="translate(778.4902, 1918.7324)" fill="#000000" fill-rule="nonzero">
                    <path d="M0.8203116,14.423832 C1.3378896,14.423832 1.5917956,14.2285116 1.7773436,13.681636 L3.0371096,10.234376 L8.7988296,10.234376 L10.0585956,13.681636 C10.2441424,14.228512 10.4980496,14.423832 11.0058616,14.423832 C11.5234396,14.423832 11.8554716,14.111324 11.8554716,13.623042 C11.8554716,13.4570264 11.8261748,13.300776 11.7480498,13.095698 L7.1679698,0.898438 C6.9433598,0.302734 6.5429698,0 5.9179698,0 C5.3125018,0 4.9023458,0.292968 4.6875018,0.888672 L0.1074218,13.105472 C0.0292968,13.31055 -3.55271368e-16,13.4668 -3.55271368e-16,13.632816 C-3.55271368e-16,14.121098 0.3125,14.423832 0.820312,14.423832 L0.8203116,14.423832 Z M3.5156316,8.750004 L5.8886716,2.177744 L5.9374998,2.177744 L8.3105398,8.750004 L3.5156316,8.750004 Z" id="Shape"></path>
                </g>
                <line x1="792.836" y1="1919" x2="792.836" y2="1933" id="Path" stroke="#00AEEF" stroke-width="0.5"></line>
                <text id="Margins" fill="#000000" fill-rule="nonzero" font-family="Helvetica" font-size="13" font-weight="normal">
                    <tspan x="776" y="1953">Margins</tspan>
                </text>
                <text id="Leading-and-trailing-margins-on-the-left-and-right-side-of-each-symbol" fill="#000000" fill-rule="nonzero" font-family="Helvetica" font-size="13" font-weight="normal">
                    <tspan x="776" y="1971">Leading and trailing margins on the left and right side of each symbol</tspan>
                </text>
                <text id="can-be-adjusted-by-modifying-the-x-location-of-the-margin-guidelines." fill="#000000" fill-rule="nonzero" font-family="Helvetica" font-size="13" font-weight="normal">
                    <tspan x="776" y="1989">can be adjusted by modifying the x-location of the margin guidelines.</tspan>
                </text>
                <text id="Modifications-are-automatically-applied-proportionally-to-all" fill="#000000" fill-rule="nonzero" font-family="Helvetica" font-size="13" font-weight="normal">
                    <tspan x="776" y="2007">Modifications are automatically applied proportionally to all</tspan>
                </text>
                <text id="scales-and-weights." fill="#000000" fill-rule="nonzero" font-family="Helvetica" font-size="13" font-weight="normal">
                    <tspan x="776" y="2025">scales and weights.</tspan>
                </text>
                <g id="Group" transform="translate(1291.2481, 1914.5174)" fill="#000000" fill-rule="nonzero">
                    <path d="M0.593687825,20.3477978 L2.29290583,22.0567818 C3.15228183,22.9259218 4.13860983,22.8673278 5.06634583,21.8419378 L15.7597058,10.0548378 L14.7929098,9.07827578 L4.17766983,20.7579558 C3.82610783,21.1583458 3.49407583,21.2560018 3.02532583,20.7872526 L1.85344983,19.6251426 C1.38469983,19.1661586 1.49212183,18.8243606 1.89251223,18.4630326 L13.3671122,7.66225258 L12.3905502,6.69545658 L0.798750225,17.5841366 C-0.187577775,18.5021046 -0.265703775,19.4786686 0.593672225,20.3478166 L0.593687825,20.3477978 Z M7.00970783,2.15443778 C6.58978583,2.56459378 6.56048983,3.14076578 6.79486383,3.53139178 C7.02923983,3.89271978 7.48822383,4.12709578 8.13275383,3.96107978 C9.59759783,3.61928378 11.1210338,3.56068978 12.5468138,4.49818978 L11.9608758,5.95326778 C11.6190798,6.78334578 11.7948602,7.36928378 12.3319698,7.91615778 L14.6268898,10.2306178 C15.1151718,10.7188998 15.5253278,10.7384298 16.0917338,10.6407738 L17.1561878,10.4454614 L17.8202498,11.1192894 L17.7811874,11.6759294 C17.742125,12.1739754 17.869078,12.5548354 18.3573594,13.0333514 L19.1190774,13.7755394 C19.5975934,14.2540554 20.2128274,14.2833514 20.6815774,13.8146018 L23.5917374,10.8946818 C24.0604874,10.4259318 24.0409554,9.83022778 23.5624406,9.35171378 L22.7909566,8.58999578 C22.3124406,8.11147978 21.9413466,7.95522978 21.4628326,7.99429178 L20.8866606,8.04311998 L20.2421286,7.40835398 L20.4862686,6.28530798 C20.6132218,5.71890198 20.4569718,5.27944798 19.8710346,4.69351198 L17.6737746,2.50601198 C14.3339346,-0.814308021 9.90033463,-0.736168021 7.00971463,2.15444998 L7.00970783,2.15443778 Z M8.50384783,2.52553178 C10.9354878,0.748187779 14.2265078,1.05092178 16.4530678,3.27748578 L18.8847078,5.68958578 C19.1190838,5.92396178 19.1581458,6.10950778 19.0897858,6.45130378 L18.7675198,7.93567978 L20.2714258,9.42005578 L21.2577538,9.36146198 C21.5116598,9.35169636 21.5897858,9.3712276 21.7850978,9.56653998 L22.3612698,10.142712 L19.9198698,12.584112 L19.3436978,12.00794 C19.1483854,11.8126276 19.1190878,11.734502 19.1288538,11.47083 L19.1972132,10.494268 L17.7030732,9.00989198 L16.1796352,9.26379798 C15.8573692,9.33215738 15.7108852,9.30286038 15.4667452,9.06848558 L13.4647852,7.06652558 C13.2108792,6.83214958 13.1815812,6.66613558 13.337832,6.29504158 L14.216738,4.20520158 C12.654238,2.75012358 10.622978,2.12512158 8.59173803,2.72082558 C8.43548803,2.75988798 8.37689403,2.63293498 8.50384743,2.52551318 L8.50384783,2.52553178 Z" id="Shape"></path>
                </g>
                <text id="Exporting" fill="#000000" fill-rule="nonzero" font-family="Helvetica" font-size="13" font-weight="normal">
                    <tspan x="1289" y="1953">Exporting</tspan>
                </text>
                <text id="Symbols-should-be-outlined-when-exporting-to-ensure-the" fill="#000000" fill-rule="nonzero" font-family="Helvetica" font-size="13" font-weight="normal">
                    <tspan x="1289" y="1971">Symbols should be outlined when exporting to ensure the</tspan>
                </text>
                <text id="design-is-preserved-when-submitting-to-Xcode." fill="#000000" fill-rule="nonzero" font-family="Helvetica" font-size="13" font-weight="normal">
                    <tspan x="1289" y="1989">design is preserved when submitting to Xcode.</tspan>
                </text>
                <text id="template-version" fill="#000000" fill-rule="nonzero" font-family="Helvetica" font-size="13" font-weight="normal">
                    <tspan x="2952" y="1933">Template v.6.0</tspan>
                </text>
                <text id="Requires-Xcode-16-or-greater" fill="#000000" fill-rule="nonzero" font-family="Helvetica" font-size="13" font-weight="normal">
                    <tspan x="2865" y="1951">Requires Xcode 16 or greater</tspan>
                </text>
                <text id="descriptive-name" fill="#000000" fill-rule="nonzero" font-family="Helvetica" font-size="13" font-weight="normal">
                    <tspan x="2856" y="1969">Generated from custom.square</tspan>
                </text>
                <text id="Typeset-at-100.0-points" fill="#000000" fill-rule="nonzero" font-family="Helvetica" font-size="13" font-weight="normal">
                    <tspan x="2901" y="1987">Typeset at 100.0 points</tspan>
                </text>
                <text id="Small" fill="#000000" fill-rule="nonzero" font-family="Helvetica" font-size="13" font-weight="normal">
                    <tspan x="263" y="726">Small</tspan>
                </text>
                <text id="Medium" fill="#000000" fill-rule="nonzero" font-family="Helvetica" font-size="13" font-weight="normal">
                    <tspan x="263" y="1156">Medium</tspan>
                </text>
                <text id="Large" fill="#000000" fill-rule="nonzero" font-family="Helvetica" font-size="13" font-weight="normal">
                    <tspan x="263" y="1586">Large</tspan>
                </text>
            </g>
            <g id="Guides" transform="translate(265, 602.785)">
                <g id="H-reference" transform="translate(76.9937, 24.756)" fill="#27AAE1" fill-rule="nonzero">
                    <path d="M0,70.459 L2.644096,70.459 L28.334446,3.3267 L29.036646,3.3267 L29.036646,0 L27.128946,0 L0,70.459 Z M10.694846,45.9791 L45.987846,45.9791 L45.237846,43.7305 L11.444846,43.7305 L10.694846,45.9791 Z M54.125946,70.459 L56.770046,70.459 L29.644546,0 L28.438946,0 L28.438946,3.3267 L54.125946,70.459 Z" id="Shape"></path>
                </g>
                <line x1="0" y1="95.215" x2="2773" y2="95.215" id="Baseline-S" stroke="#27AAE1" stroke-width="0.5"></line>
                <line x1="0" y1="24.756" x2="2773" y2="24.756" id="Capline-S" stroke="#27AAE1" stroke-width="0.5"></line>
                <g id="H-reference" transform="translate(76.9937, 454.756)" fill="#27AAE1" fill-rule="nonzero">
                    <path d="M0,70.459 L2.644096,70.459 L28.334446,3.3267 L29.036646,3.3267 L29.036646,0 L27.128946,0 L0,70.459 Z M10.694846,45.9791 L45.987846,45.9791 L45.237846,43.7305 L11.444846,43.7305 L10.694846,45.9791 Z M54.125946,70.459 L56.770046,70.459 L29.644546,0 L28.438946,0 L28.438946,3.3267 L54.125946,70.459 Z" id="Shape"></path>
                </g>
                <line x1="0" y1="525.215" x2="2773" y2="525.215" id="Baseline-M" stroke="#27AAE1" stroke-width="0.5"></line>
                <line x1="0" y1="454.755" x2="2773" y2="454.755" id="Capline-M" stroke="#27AAE1" stroke-width="0.5"></line>
                <g id="H-reference" transform="translate(76.9937, 884.756)" fill="#27AAE1" fill-rule="nonzero">
                    <path d="M0,70.459 L2.644096,70.459 L28.334446,3.3267 L29.036646,3.3267 L29.036646,0 L27.128946,0 L0,70.459 Z M10.694846,45.9791 L45.987846,45.9791 L45.237846,43.7305 L11.444846,43.7305 L10.694846,45.9791 Z M54.125946,70.459 L56.770046,70.459 L29.644546,0 L28.438946,0 L28.438946,3.3267 L54.125946,70.459 Z" id="Shape"></path>
                </g>
                <line x1="0" y1="955.215" x2="2773" y2="955.215" id="Baseline-L" stroke="#27AAE1" stroke-width="0.5"></line>
                <line x1="0" y1="884.755" x2="2773" y2="884.755" id="Capline-L" stroke="#27AAE1" stroke-width="0.5"></line>
                <line x1="2718.3" y1="1.13686838e-13" x2="2718.3" y2="119.336" id="right-margin-Black-S" stroke="#00AEEF" stroke-width="0.5"></line>
                <line x1="2622.5" y1="1.13686838e-13" x2="2622.5" y2="119.336" id="left-margin-Black-S" stroke="#00AEEF" stroke-width="0.5"></line>
                <line x1="1232.18" y1="1.13686838e-13" x2="1232.18" y2="119.336" id="right-margin-Regular-S" stroke="#00AEEF" stroke-width="0.5"></line>
                <line x1="1141.51" y1="1.13686838e-13" x2="1141.51" y2="119.336" id="left-margin-Regular-S" stroke="#00AEEF" stroke-width="0.5"></line>
                <line x1="340.073" y1="1.13686838e-13" x2="340.073" y2="119.336" id="right-margin-Ultralight-S" stroke="#00AEEF" stroke-width="0.5"></line>
                <line x1="253.35" y1="1.13686838e-13" x2="253.35" y2="119.336" id="left-margin-Ultralight-S" stroke="#00AEEF" stroke-width="0.5"></line>
            </g>
            <g id="Symbols" transform="translate(527.8656, 624.3613)" fill="#000000" fill-rule="nonzero">
                <g id="Black-S" transform="translate(2369.15, 0)">
                    <path d="M61.28518,0 C70.9935512,0 76.76958,5.77602881 76.76958,15.4844 L76.76958,61.2852 C76.76958,70.9935622 70.9935601,76.76956 61.28518,76.76956 L15.48438,76.76956 C5.77600434,76.76956 0,70.9935667 0,61.2852 L0,15.4844 C0,5.77602434 5.77601328,0 15.48438,0 L61.28518,0 Z M61.28518,0.5 C70.7174088,0.5 76.26958,6.05217119 76.26958,15.4844 L76.26958,61.2852 C76.26958,70.7174194 70.7174182,76.26956 61.28518,76.26956 L15.48438,76.26956 C6.0521465,76.26956 0.5,70.7174241 0.5,61.2852 L0.5,15.4844 C0.5,6.0521665 6.05215587,0.5 15.48438,0.5 Z M21.5607505,14.1598634 L17.73048,14.1598634 C15.2716693,14.1598634 14.16018,15.2221263 14.16018,17.7305 L14.16018,59.0391 C14.16018,61.5473971 15.2715754,62.6094 17.73048,62.6094 L59.03908,62.6094 C61.4979846,62.6094 62.60938,61.5473971 62.60938,59.0391 L62.60938,17.7305 C62.60938,15.2221263 61.4978907,14.1598634 59.03908,14.1598634 L54.800882,14.1598634 L54.800882,28.3974784 C54.800882,31.020831 52.6742346,33.1474784 50.050882,33.1474784 L26.3107505,33.1474784 C23.687398,33.1474784 21.5607505,31.020831 21.5607505,28.3974784 L21.5607505,14.1598634 Z M55.300882,28.3974784 C55.300882,31.2969734 52.9503769,33.6474784 50.050882,33.6474784 L26.3107505,33.6474784 C23.4112556,33.6474784 21.0607505,31.2969734 21.0607505,28.3974784 L21.06,14.659 L17.73048,14.6598634 C15.6134401,14.6598634 14.7184858,15.4499143 14.6629497,17.5192808 L14.66018,17.7305 L14.66018,59.0391 C14.66018,61.2660424 15.5427612,62.1094 17.73048,62.1094 L59.03908,62.1094 C61.2267988,62.1094 62.10938,61.2660424 62.10938,59.0391 L62.10938,17.7305 C62.10938,15.5034622 61.2266879,14.6598634 59.03908,14.6598634 L55.3,14.659 L55.300882,28.3974784 Z" id="Shape"></path>
                </g>
                <g id="Regular-S" transform="translate(888.41, 2.8379)">
                    <path d="M58.69138,-0.25 C67.1602435,-0.25 71.39258,3.94487833 71.39258,12.3047 L71.39258,58.8867 C71.39258,67.2465654 67.1602599,71.441425 58.69138,71.441425 L12.45118,71.441425 C4.01296782,71.441425 -0.25,67.2285988 -0.25,58.8867 L-0.25,12.3047 C-0.25,3.96284494 4.01298423,-0.25 12.45118,-0.25 L58.69138,-0.25 Z M58.69138,0.25 C66.8850913,0.25 70.89258,4.2220206 70.89258,12.3047 L70.89258,58.8867 C70.89258,66.9694231 66.8851077,70.941425 58.69138,70.941425 L12.45118,70.941425 C4.28779459,70.941425 0.25,66.9511235 0.25,58.8867 L0.25,12.3047 C0.25,4.24032017 4.28781107,0.25 12.45118,0.25 Z M19.9968264,6.8301 L12.54888,6.8301 C8.8348348,6.8301 6.78128,8.85700051 6.78128,12.6465 L6.78128,58.5449 C6.78128,62.3031758 8.85288471,64.36135 12.54888,64.36135 L58.59378,64.36135 C62.2897118,64.36135 64.36138,62.3031401 64.36138,58.5449 L64.36138,12.6465 C64.36138,8.85703597 62.307762,6.8301 58.59378,6.8301 L50.4581414,6.8301 L50.4581414,13.614656 C50.4581414,16.2380086 48.331494,18.364656 45.7081414,18.364656 L24.7468264,18.364656 C22.1234738,18.364656 19.9968264,16.2380086 19.9968264,13.614656 L19.9968264,6.8301 Z M50.9581414,13.614656 C50.9581414,16.514151 48.6076364,18.864656 45.7081414,18.864656 L24.7468264,18.864656 C21.8473314,18.864656 19.4968264,16.514151 19.4968264,13.614656 L19.496,7.33 L12.54888,7.33 C9.19550939,7.33 7.37369922,9.0455177 7.28470457,12.3863115 L7.28128,12.6465 L7.28128,58.5449 C7.28128,62.0263028 9.1283017,63.86135 12.54888,63.86135 L58.59378,63.86135 C62.0142963,63.86135 63.86138,62.0262656 63.86138,58.5449 L63.86138,12.6465 C63.86138,9.13465262 62.0330727,7.33 58.59378,7.33 L50.958,7.33 L50.9581414,13.614656 Z" id="Shape"></path>
                </g>
                <g id="Ultralight-S" transform="translate(0.25, 4.7905)">
                    <path d="M57.19288,-0.25 C63.8296545,-0.25 67.44198,3.38392167 67.44198,9.9888 L67.44198,57.2066 C67.44198,63.811499 63.8296735,67.44538 57.19288,67.44538 L9.99908,67.44538 C3.33130823,67.44538 -0.25,63.8677306 -0.25,57.2066 L-0.25,9.9888 C-0.25,3.32770267 3.33133496,-0.25 9.99908,-0.25 L57.19288,-0.25 Z M57.19288,0.25 C63.5528427,0.25 66.94198,3.65939908 66.94198,9.9888 L66.94198,57.2066 C66.94198,63.5360209 63.5528625,66.94538 57.19288,66.94538 L9.99908,66.94538 C3.60733626,66.94538 0.25,63.5914738 0.25,57.2066 L0.25,9.9888 C0.25,3.60395869 3.60736382,0.25 9.99908,0.25 Z M20.146429,1.9713 L10.09668,1.9713 C4.75856899,1.9713 1.96778,4.76026581 1.96778,10.1036 L1.96778,57.0918 C1.96778,62.4329897 4.7598364,65.22415 10.09668,65.22415 L57.09528,65.22415 C62.3172774,65.22415 65.22408,62.3673719 65.22408,57.0918 L65.22408,10.1036 C65.22408,4.82586118 62.3185672,1.9713 57.09528,1.9713 L46.6411519,1.9713 L46.6411519,5.1036 C46.6411519,7.72695256 44.5145044,9.8536 41.8911519,9.8536 L24.896429,9.8536 C22.2730764,9.8536 20.146429,7.72695256 20.146429,5.1036 L20.146429,1.9713 Z M47.1411519,5.1036 C47.1411519,8.00309494 44.7906468,10.3536 41.8911519,10.3536 L24.896429,10.3536 C21.9969341,10.3536 19.646429,8.00309494 19.646429,5.1036 L19.646,2.471 L10.09668,2.471 C5.13389397,2.471 2.56940042,4.93687224 2.47074008,9.80842042 L2.46778,10.1036 L2.46778,57.0918 C2.46778,62.1568114 5.03594285,64.72415 10.09668,64.72415 L57.09528,64.72415 C62.0430591,64.72415 64.72408,62.0892681 64.72408,57.0918 L64.72408,10.1036 C64.72408,5.10400292 62.0443855,2.471 57.09528,2.471 L47.141,2.471 L47.1411519,5.1036 Z" id="Shape"></path>
                </g>
            </g>
        </g>
    </g>
</svg>